<svg width="52" height="52" viewBox="0 0 52 52" fill="none" xmlns="http://www.w3.org/2000/svg">
<rect width="52" height="52" rx="15" fill="#4D5B9E"/>
<path d="M26.4362 37.504C24.3602 37.504 22.5242 37.048 20.9282 36.136C19.3442 35.224 18.1022 33.862 17.2022 32.05C16.3022 30.238 15.8522 27.988 15.8522 25.3C15.8522 22.564 16.3022 20.302 17.2022 18.514C18.1022 16.714 19.3442 15.376 20.9282 14.5C22.5242 13.612 24.3602 13.168 26.4362 13.168C28.5242 13.168 30.3662 13.624 31.9622 14.536C33.5582 15.436 34.8062 16.786 35.7062 18.586C36.6062 20.386 37.0562 22.624 37.0562 25.3C37.0562 28.024 36.6062 30.292 35.7062 32.104C34.8062 33.916 33.5582 35.272 31.9622 36.172C30.3662 37.06 28.5242 37.504 26.4362 37.504ZM33.6002 43.48C32.4122 43.48 31.3142 43.162 30.3062 42.526C29.2982 41.89 28.4162 40.996 27.6602 39.844L25.2482 36.208L28.6322 34.624L30.7202 37.864C31.0682 38.368 31.4642 38.722 31.9082 38.926C32.3522 39.13 32.8082 39.244 33.2762 39.268C33.8762 39.268 34.4522 39.19 35.0042 39.034C35.5682 38.89 36.1562 38.692 36.7682 38.44V42.832C36.2042 43.06 35.6642 43.222 35.1482 43.318C34.6442 43.426 34.1282 43.48 33.6002 43.48ZM26.4362 33.652C28.3442 33.652 29.8562 32.932 30.9722 31.492C32.1002 30.052 32.6642 27.976 32.6642 25.264C32.6642 22.648 32.1002 20.614 30.9722 19.162C29.8562 17.71 28.3442 16.984 26.4362 16.984C24.5642 16.984 23.0642 17.716 21.9362 19.18C20.8082 20.632 20.2442 22.672 20.2442 25.3C20.2442 28 20.8082 30.07 21.9362 31.51C23.0642 32.938 24.5642 33.652 26.4362 33.652Z" fill="white"/>
</svg>
